<?xml version="1.0" encoding="UTF-8" standalone="no"?>
<!DOCTYPE svg PUBLIC "-//W3C//DTD SVG 1.1//EN" "http://www.w3.org/Graphics/SVG/1.1/DTD/svg11.dtd">
<svg width="100%" height="100%" viewBox="0 0 2669 523" version="1.1" xmlns="http://www.w3.org/2000/svg" xmlns:xlink="http://www.w3.org/1999/xlink" xml:space="preserve" xmlns:serif="http://www.serif.com/" style="fill-rule:evenodd;clip-rule:evenodd;stroke-linejoin:round;stroke-miterlimit:2;">
    <g transform="matrix(1,0,0,1,-326.669,-979.087)">
        <g transform="matrix(0.5,0,0,0.5,798.672,441.16)">
            <g>
                <path d="M845.218,1789.11L845.218,1740.35C842.391,1745.44 836.102,1752.72 826.35,1762.19C816.598,1771.66 803.878,1780.21 788.191,1787.84C772.503,1795.47 754.201,1799.29 733.284,1799.29C698.516,1799.29 668.625,1790.6 643.609,1773.21C618.594,1755.83 599.443,1733.14 586.158,1705.16C572.873,1677.18 566.231,1647.22 566.231,1615.27C566.231,1583.33 572.873,1553.37 586.158,1525.39C599.443,1497.4 618.594,1474.65 643.609,1457.12C668.625,1439.6 698.516,1430.84 733.284,1430.84C753.07,1430.84 770.312,1433.59 785.011,1439.11C799.709,1444.62 811.934,1451.26 821.686,1459.03C831.438,1466.81 838.716,1474.37 843.522,1481.72L843.522,1441.01L1009.73,1441.01L1009.73,1789.11L845.218,1789.11ZM729.892,1615.27C729.892,1624.88 732.294,1633.93 737.1,1642.41C741.905,1650.89 748.547,1657.67 757.027,1662.76C765.507,1667.85 775.4,1670.39 786.707,1670.39C798.013,1670.39 807.906,1667.85 816.386,1662.76C824.866,1657.67 831.509,1650.89 836.314,1642.41C841.119,1633.93 843.522,1624.88 843.522,1615.27C843.522,1605.66 841.119,1596.62 836.314,1588.14C831.509,1579.66 824.866,1572.8 816.386,1567.58C807.906,1562.35 798.013,1559.73 786.707,1559.73C775.4,1559.73 765.507,1562.35 757.027,1567.58C748.547,1572.8 741.905,1579.66 737.1,1588.14C732.294,1596.62 729.892,1605.66 729.892,1615.27Z"/>
                <g transform="matrix(1,0,0,1,-9.49656,1.40895)">
                    <path d="M1039.41,1789.11L1039.41,1441.01L1206.04,1441.01L1206.04,1789.11L1039.41,1789.11ZM1124.63,1402.43C1099.75,1402.43 1078.63,1393.6 1061.24,1375.93C1043.86,1358.26 1035.17,1337.28 1035.17,1312.97C1035.17,1288.66 1043.86,1267.53 1061.24,1249.58C1078.63,1231.63 1099.75,1222.66 1124.63,1222.66C1141.02,1222.66 1156,1226.76 1169.57,1234.95C1183.14,1243.15 1194.09,1254.03 1202.43,1267.6C1210.77,1281.17 1214.94,1296.29 1214.94,1312.97C1214.94,1337.28 1206.11,1358.26 1188.44,1375.93C1170.77,1393.6 1149.5,1402.43 1124.63,1402.43Z"/>
                </g>
                <path d="M1384.96,1789.11L1217.91,1789.11L1217.91,1441.01L1384.96,1441.01L1384.96,1490.62L1382.84,1490.62C1385.95,1484.4 1391.82,1476.63 1400.44,1467.3C1409.06,1457.97 1421.21,1449.56 1436.9,1442.07C1452.59,1434.58 1472.3,1430.84 1496.05,1430.84C1511.88,1430.84 1527,1433.45 1541.41,1438.68C1555.83,1443.91 1566.57,1449.07 1573.64,1454.16L1509.61,1588.99C1505.94,1583.33 1499.01,1577.61 1488.84,1571.82C1478.66,1566.02 1465.94,1563.12 1450.68,1563.12C1434.29,1563.12 1421.28,1566.44 1411.67,1573.09C1402.06,1579.73 1395.21,1587.93 1391.11,1597.68C1387.01,1607.43 1384.96,1616.97 1384.96,1626.3L1384.96,1789.11Z"/>
                <path d="M1693.2,1799.29C1658.43,1799.29 1628.76,1790.6 1604.16,1773.21C1579.57,1755.83 1560.7,1733.14 1547.56,1705.16C1534.42,1677.18 1527.85,1647.22 1527.85,1615.27C1527.85,1583.33 1534.42,1553.37 1547.56,1525.39C1560.7,1497.4 1579.57,1474.65 1604.16,1457.12C1628.76,1439.6 1658.43,1430.84 1693.2,1430.84C1713.27,1430.84 1731.15,1433.59 1746.84,1439.11C1762.53,1444.62 1775.39,1451.26 1785.42,1459.03C1795.46,1466.81 1802.03,1474.37 1805.14,1481.72L1805.14,1205.7L1971.34,1205.7L1971.34,1789.11L1806.41,1789.11L1806.41,1740.35C1799.06,1751.66 1789.38,1761.76 1777.37,1770.67C1765.35,1779.57 1752.14,1786.57 1737.72,1791.65C1723.31,1796.74 1708.47,1799.29 1693.2,1799.29ZM1748.32,1670.39C1759.63,1670.39 1769.52,1667.85 1778,1662.76C1786.48,1657.67 1793.12,1650.89 1797.93,1642.41C1802.73,1633.93 1805.14,1624.88 1805.14,1615.27C1805.14,1605.66 1802.73,1596.62 1797.93,1588.14C1793.12,1579.66 1786.48,1572.8 1778,1567.58C1769.52,1562.35 1759.63,1559.73 1748.32,1559.73C1737.02,1559.73 1727.05,1562.35 1718.43,1567.58C1709.81,1572.8 1703.1,1579.66 1698.29,1588.14C1693.49,1596.62 1691.08,1605.66 1691.08,1615.27C1691.08,1624.88 1693.49,1633.93 1698.29,1642.41C1703.1,1650.89 1709.81,1657.67 1718.43,1662.76C1727.05,1667.85 1737.02,1670.39 1748.32,1670.39Z"/>
                <path d="M2261.78,1789.11L2261.78,1740.35C2258.95,1745.44 2252.66,1752.72 2242.91,1762.19C2233.16,1771.66 2220.44,1780.21 2204.75,1787.84C2189.06,1795.47 2170.76,1799.29 2149.84,1799.29C2115.07,1799.29 2085.18,1790.6 2060.17,1773.21C2035.15,1755.83 2016,1733.14 2002.72,1705.16C1989.43,1677.18 1982.79,1647.22 1982.79,1615.27C1982.79,1583.33 1989.43,1553.37 2002.72,1525.39C2016,1497.4 2035.15,1474.65 2060.17,1457.12C2085.18,1439.6 2115.07,1430.84 2149.84,1430.84C2169.63,1430.84 2186.87,1433.59 2201.57,1439.11C2216.27,1444.62 2228.49,1451.26 2238.24,1459.03C2248,1466.81 2255.28,1474.37 2260.08,1481.72L2260.08,1441.01L2426.29,1441.01L2426.29,1789.11L2261.78,1789.11ZM2146.45,1615.27C2146.45,1624.88 2148.85,1633.93 2153.66,1642.41C2158.46,1650.89 2165.11,1657.67 2173.59,1662.76C2182.07,1667.85 2191.96,1670.39 2203.27,1670.39C2214.57,1670.39 2224.47,1667.85 2232.95,1662.76C2241.43,1657.67 2248.07,1650.89 2252.87,1642.41C2257.68,1633.93 2260.08,1624.88 2260.08,1615.27C2260.08,1605.66 2257.68,1596.62 2252.87,1588.14C2248.07,1579.66 2241.43,1572.8 2232.95,1567.58C2224.47,1562.35 2214.57,1559.73 2203.27,1559.73C2191.96,1559.73 2182.07,1562.35 2173.59,1567.58C2165.11,1572.8 2158.46,1579.66 2153.66,1588.14C2148.85,1596.62 2146.45,1605.66 2146.45,1615.27Z"/>
                <path d="M2616.66,1965.49L2451.72,1965.49L2451.72,1441.01L2617.93,1441.01L2617.93,1481.72C2623.02,1474.37 2630.93,1466.81 2641.67,1459.03C2652.41,1451.26 2665.77,1444.62 2681.74,1439.11C2697.71,1433.59 2715.59,1430.84 2735.38,1430.84C2770.14,1430.84 2799.4,1439.6 2823.14,1457.12C2846.89,1474.65 2864.84,1497.4 2876.99,1525.39C2889.14,1553.37 2895.22,1583.33 2895.22,1615.27C2895.22,1647.22 2888.58,1677.18 2875.29,1705.16C2862.01,1733.14 2842.93,1755.83 2818.05,1773.21C2793.18,1790.6 2763.36,1799.29 2728.59,1799.29C2705.7,1799.29 2686.48,1795.47 2670.93,1787.84C2655.38,1780.21 2643.23,1771.66 2634.47,1762.19C2625.7,1752.72 2619.77,1745.44 2616.66,1740.35L2616.66,1965.49ZM2731.98,1615.27C2731.98,1605.66 2729.58,1596.62 2724.78,1588.14C2719.97,1579.66 2713.26,1572.8 2704.64,1567.58C2696.02,1562.35 2686.05,1559.73 2674.74,1559.73C2663.44,1559.73 2653.55,1562.35 2645.07,1567.58C2636.59,1572.8 2629.94,1579.66 2625.14,1588.14C2620.33,1596.62 2617.93,1605.66 2617.93,1615.27C2617.93,1624.88 2620.33,1633.93 2625.14,1642.41C2629.94,1650.89 2636.59,1657.67 2645.07,1662.76C2653.55,1667.85 2663.44,1670.39 2674.74,1670.39C2686.05,1670.39 2696.02,1667.85 2704.64,1662.76C2713.26,1657.67 2719.97,1650.89 2724.78,1642.41C2729.58,1633.93 2731.98,1624.88 2731.98,1615.27Z"/>
            </g>
            <g transform="matrix(1.36066,0,0,1,-503.959,63.4412)">
                <path d="M1642.36,1205.7L1878.07,1205.7L1753.94,1012.41L1642.36,1205.7Z"/>
            </g>
            <g transform="matrix(-1.36066,-1.63064e-16,1.21431e-16,-1,4925.66,3132.55)">
                <path d="M1642.36,1205.7L1878.07,1205.7L1753.94,1012.41L1642.36,1205.7Z"/>
            </g>
        </g>
        <g transform="matrix(1,0,0,1,699.415,-261.07)">
            <g transform="matrix(0.5,0,0,0.476206,2049.93,911.063)">
                <rect x="114.925" y="1073" width="377.36" height="368.45"/>
            </g>
            <g transform="matrix(0.5,0,0,0.476206,1800.69,911.063)">
                <rect x="114.925" y="1073" width="377.36" height="368.45"/>
            </g>
            <g transform="matrix(0.5,0,0,0.476206,1552.11,911.063)">
                <rect x="114.925" y="1073" width="377.36" height="368.45"/>
            </g>
        </g>
        <g transform="matrix(1,0,0,1,-1282.9,-256.687)">
            <g transform="matrix(0.5,0,0,0.476206,2049.93,911.063)">
                <rect x="114.925" y="1073" width="377.36" height="368.45"/>
            </g>
            <g transform="matrix(0.5,0,0,0.476206,1800.69,911.063)">
                <rect x="114.925" y="1073" width="377.36" height="368.45"/>
            </g>
            <g transform="matrix(0.5,0,0,0.476206,1552.11,911.063)">
                <rect x="114.925" y="1073" width="377.36" height="368.45"/>
            </g>
        </g>
    </g>
</svg>
